<svg width="20" height="20" viewBox="0 0 20 20" fill="none" xmlns="http://www.w3.org/2000/svg">
<g clip-path="url(#clip0_75_235)">
<path d="M18.2423 6.09575H12.5559L10.6915 4.22356C9.63457 3.16657 7.9573 3.07372 6.79016 4.00751L3.21598 6.86684C2.89996 6.39813 2.36422 6.08927 1.7577 6.08927H0.585898C0.262305 6.08923 0 6.35153 0 6.67509V16.0492C0 16.3727 0.262305 16.6351 0.585898 16.6351H1.75766C2.445 16.6351 3.04113 16.2382 3.32988 15.6618C5.08305 16.3077 6.9184 16.6351 8.79238 16.6351C9.04012 16.6351 10.8838 16.6351 11.1317 16.6351C12.1009 16.6351 12.8894 15.8466 12.8894 14.8774C12.8894 14.6487 12.845 14.4302 12.7651 14.2296C13.511 14.0264 14.0611 13.3434 14.0611 12.5339C14.0611 12.3052 14.0168 12.0867 13.9369 11.8861C14.6828 11.6829 15.2329 10.9999 15.2329 10.1904C15.2329 9.98454 15.197 9.78696 15.1317 9.60321H18.2423C19.2115 9.60321 20 8.81473 20 7.84555V7.84165C20 6.87466 19.2115 6.09575 18.2423 6.09575ZM2.34352 14.8774C2.34352 15.2005 2.0807 15.4633 1.75762 15.4633H1.17176V7.26098H1.75766C2.0807 7.26098 2.34355 7.5238 2.34355 7.84688L2.34352 14.8774ZM18.8282 7.84555C18.8282 8.1686 18.5654 8.43927 18.2423 8.43927H11.1376C10.814 8.43927 10.5517 8.69376 10.5517 9.01735C10.5517 9.34091 10.814 9.60325 11.1376 9.60325H13.4496C13.4582 9.60364 13.4666 9.60454 13.4752 9.60454C13.7983 9.60454 14.0611 9.86735 14.0611 10.1904C14.0611 10.5135 13.7983 10.7763 13.4752 10.7763H11.1317C10.8082 10.7763 10.5458 11.0386 10.5458 11.3622C10.5458 11.6858 10.8081 11.9481 11.1317 11.9481H12.3035C12.6265 11.9481 12.8894 12.2109 12.8894 12.534C12.8894 12.8571 12.6266 13.1199 12.3035 13.1199H11.1317C10.8082 13.1199 10.5458 13.3822 10.5458 13.7058C10.5458 14.0294 10.8081 14.2917 11.1317 14.2917C11.4548 14.2917 11.7176 14.5545 11.7176 14.8776C11.7176 15.2007 11.4548 15.4635 11.1317 15.4635C10.8836 15.4635 9.04012 15.4635 8.79238 15.4635C6.97895 15.4635 5.20457 15.1327 3.51527 14.4799V8.12794L7.52211 4.92247C8.22234 4.3622 9.22871 4.41794 9.86293 5.05212L10.8988 6.09579C8.91973 6.09579 10.8832 6.09317 8.78816 6.09317C8.46461 6.09317 8.20227 6.35548 8.20227 6.67907C8.20227 7.00262 8.46457 7.25716 8.78816 7.25716C8.91668 7.25716 18.1136 7.25977 18.2423 7.25977C18.5654 7.25977 18.8282 7.52083 18.8282 7.84177L18.8282 7.84555Z" fill="white"/>
</g>
<defs>
<clipPath id="clip0_75_235">
<rect width="20" height="20" fill="white"/>
</clipPath>
</defs>
</svg>
