<svg width="54" height="51" viewBox="0 0 54 51" fill="none" xmlns="http://www.w3.org/2000/svg">
<path d="M48.8135 5.25516C42.7484 -0.844182 32.7388 -0.540983 26.9642 5.79905C21.1892 -0.540758 11.18 -0.844295 5.11487 5.25527C-0.916359 11.2616 -0.710897 21.1522 5.50335 26.9493C2.32413 29.9857 4.14546 35.4419 8.47273 35.9738C8.21352 38.9369 10.7355 41.6542 13.7187 41.6038C13.9016 44.8657 17.1755 47.2006 20.3143 46.3386C21.3441 50.2248 26.2944 51.5527 29.1344 48.6925C30.7474 47.0892 32.0301 46.0781 32.1119 43.6499C34.777 43.5756 37.083 41.2383 37.1236 38.5747C39.8144 38.5332 42.1587 36.188 42.2002 33.4981C44.9916 33.4556 47.4119 30.9362 47.2819 28.0921L48.8133 26.5608C54.6874 20.6868 54.6874 11.1291 48.8135 5.25516ZM7.81236 29.4011L9.2507 27.9627C9.62246 27.5909 10.1106 27.4051 10.5989 27.4051C12.2734 27.394 13.1474 29.4642 11.947 30.659L10.5086 32.0973C8.64677 33.8114 6.09808 31.2637 7.81236 29.4011ZM11.823 36.3336C11.823 35.8242 12.0214 35.3454 12.3814 34.9853L13.8206 33.5463C14.1806 33.1867 14.659 32.9886 15.1679 32.9886C16.8566 32.9857 17.7126 35.0511 16.516 36.2433L15.2469 37.5125C14.859 37.9521 14.3261 38.2496 13.7295 38.2401C12.7048 38.2612 11.8018 37.3584 11.823 36.3336ZM17.6273 42.589C16.8877 41.8794 16.8877 40.6025 17.6273 39.8929L18.8964 38.6236C19.6364 37.7452 20.9353 37.6309 21.762 38.4544C22.5053 39.1978 22.5053 40.4071 21.762 41.1507L20.3235 42.5891C19.5802 43.3327 18.3707 43.3326 17.6273 42.589ZM28.1925 44.8738L26.7541 46.3121C26.3941 46.6722 25.9152 46.8706 25.406 46.8706C24.8967 46.8706 24.4179 46.6722 24.0578 46.3121C23.3183 45.6024 23.318 44.3255 24.0579 43.6159L25.4961 42.1775C26.2394 41.4341 27.4491 41.4341 28.1924 42.1774C28.9321 42.8871 28.9322 44.164 28.1925 44.8738ZM43.3591 29.5803C42.6493 30.3198 41.3725 30.32 40.6628 29.5803L33.1718 22.0892L30.7915 24.4696L38.2825 31.9606C39.0258 32.704 39.0258 33.9135 38.2825 34.6569C37.5391 35.4005 36.3296 35.4003 35.5862 34.6569L28.2222 27.2929L28.0952 27.1659L25.7148 29.5463L25.8419 29.6733L33.2058 37.0373C33.9492 37.7807 33.9492 38.9902 33.2058 39.7336C32.4624 40.477 31.2529 40.477 30.5095 39.7336L30.508 39.7351C29.1402 38.4128 27.2287 37.9774 25.5022 38.4289C24.9526 36.1831 22.6949 34.4828 20.4247 34.5323C20.3146 32.115 18.2709 29.9314 15.8559 29.6705C16.1746 25.5231 11.6196 22.6669 8.025 24.71C3.01873 20.2381 2.71037 12.3878 7.49547 7.63553C12.2531 2.8446 20.114 3.16205 24.5841 8.17943L20.4225 12.341L23.7572 15.6756C26.3186 18.2373 30.2659 18.5898 33.2089 16.7333L43.3594 26.884C44.1024 27.6273 44.1024 28.8368 43.3591 29.5803ZM46.4332 24.1804L45.9202 24.6933C45.8618 24.6289 45.8015 24.5656 45.7396 24.5036L33.3412 12.1051L32.1509 13.2952C30.4931 14.9531 27.7955 14.9533 26.1373 13.2952L25.183 12.341L29.8885 7.63553C41.3186 -2.88478 56.9512 12.7577 46.4332 24.1804Z" fill="#20BBB1"/>
</svg>
