<svg width="192" height="41" viewBox="0 0 192 41" fill="none" xmlns="http://www.w3.org/2000/svg">
<path d="M42.1944 30.0895H37.2236V6.31348H46.952C52.4173 6.31348 55.545 9.19666 55.545 13.8927C55.545 16.9413 53.9641 19.5779 51.2319 20.6482L56.2378 30.0895H50.6062L46.1831 21.3898H42.1944V30.0895ZM42.1944 17.7821H46.4744C48.9773 17.7821 50.442 16.348 50.442 13.992C50.442 11.687 48.8942 10.2018 46.4253 10.2018H42.1944V17.7821Z" fill="white"/>
<path d="M74.3249 24.686C73.7983 28.1454 70.6386 30.4684 66.2766 30.4684C60.8442 30.4684 57.5854 26.9919 57.5854 21.3408C57.5854 15.7057 60.8773 12.0479 66.0954 12.0479C71.2313 12.0479 74.4741 15.5243 74.4741 20.8958V22.362H62.3089V22.6626C62.3089 25.184 63.9058 26.9137 66.3587 26.9137C68.1197 26.9137 69.4693 26.0409 69.9138 24.69L74.3249 24.686ZM62.359 19.4127H69.8477C69.7476 17.1558 68.2849 15.6045 66.1434 15.6045C64.038 15.6065 62.5232 17.2049 62.359 19.4127Z" fill="white"/>
<path d="M78.2265 16.051H75.8237V12.5084H78.2265V11.1735C78.2265 7.71411 79.8564 6.09864 84.0333 6.09864C84.8566 6.09759 85.6784 6.16936 86.4891 6.3131V9.49293C86.059 9.42196 85.6235 9.38843 85.1876 9.39271C83.6068 9.39271 82.916 10.0842 82.916 11.3369V12.5064H86.4201V16.049H83.0331V30.0891H78.2275L78.2265 16.051Z" fill="white"/>
<path d="M88.9419 12.4268H93.5833V15.6066H93.6834C94.3092 13.3658 95.8069 12.1462 97.8803 12.1462C98.3414 12.1421 98.8007 12.2028 99.2449 12.3266V16.5617C98.8444 16.3963 98.1917 16.2811 97.4999 16.2811C95.1301 16.2811 93.7465 17.7312 93.7465 20.2195V30.0887H88.9409L88.9419 12.4268Z" fill="white"/>
<path d="M116.727 24.686C116.2 28.1454 113.04 30.4684 108.678 30.4684C103.246 30.4684 99.9868 26.9919 99.9868 21.3408C99.9868 15.7057 103.279 12.0479 108.497 12.0479C113.633 12.0479 116.875 15.5243 116.875 20.8958V22.362H104.71V22.6626C104.71 25.184 106.312 26.9137 108.76 26.9137C110.521 26.9137 111.871 26.0409 112.315 24.69L116.727 24.686ZM104.76 19.4127H112.249C112.149 17.1558 110.686 15.6045 108.545 15.6045C106.439 15.6065 104.925 17.2049 104.76 19.4127Z" fill="white"/>
<path d="M126.488 12.0479C130.916 12.0479 133.796 14.2887 133.862 17.716H129.434C129.334 16.299 128.2 15.4251 126.422 15.4251C124.76 15.4251 123.672 16.1837 123.672 17.3202C123.672 18.193 124.43 18.7873 125.975 19.1491L129.35 19.8746C132.889 20.6653 134.321 22.0653 134.321 24.702C134.321 28.1785 131.128 30.4684 126.47 30.4684C121.764 30.4684 118.861 28.1955 118.602 24.7561H123.293C123.523 26.2393 124.695 27.0961 126.597 27.0961C128.424 27.0961 129.527 26.3706 129.527 25.2181C129.527 24.3282 128.935 23.8341 127.354 23.4543L124.095 22.7298C120.753 21.9721 119.042 20.2244 119.042 17.6188C119.048 14.2556 121.961 12.0479 126.488 12.0479Z" fill="white"/>
<path d="M136.824 6.31348H141.548V15.5733H141.648C142.586 13.3496 144.513 12.0969 147.196 12.0969C151.113 12.0969 153.352 14.6343 153.352 18.7211V30.0895H148.546V19.7423C148.546 17.4684 147.427 16.0844 145.238 16.0844C142.966 16.0844 141.633 17.6829 141.633 20.0059V30.0895H136.828L136.824 6.31348Z" fill="white"/>
<path d="M172.511 24.686C171.984 28.1454 168.823 30.4684 164.461 30.4684C159.03 30.4684 155.77 26.9919 155.77 21.3408C155.77 15.7057 159.063 12.0479 164.28 12.0479C169.415 12.0479 172.658 15.5243 172.658 20.8958V22.362H160.494V22.6626C160.494 25.184 162.095 26.9137 164.543 26.9137C166.304 26.9137 167.654 26.0409 168.098 24.69L172.511 24.686ZM160.544 19.4127H168.033C167.933 17.1558 166.469 15.6045 164.329 15.6045C162.219 15.6065 160.709 17.2049 160.544 19.4127Z" fill="white"/>
<path d="M174.486 21.2255C174.486 15.6235 177.289 12.146 181.712 12.146C184.263 12.146 186.239 13.4979 187.095 15.4581H187.195V6.31348H192V30.0895H187.259V27.058H187.177C186.321 29.0022 184.279 30.3701 181.679 30.3701C177.267 30.3701 174.486 26.8766 174.486 21.2255ZM179.408 21.2585C179.408 24.5045 180.888 26.4978 183.312 26.4978C185.699 26.4978 187.23 24.4875 187.23 21.2585C187.23 18.0456 185.699 16.0023 183.312 16.0023C180.888 16.0023 179.408 18.0286 179.408 21.2585Z" fill="white"/>
<path d="M39.5814 34.5952C40.8018 34.5952 41.6518 35.437 41.6518 36.6627C41.6518 37.8883 40.7848 38.7391 39.5494 38.7391H38.1978V40.8877H37.2217V34.5952H39.5814ZM38.1998 37.9193H39.3201C40.1701 37.9193 40.6537 37.4614 40.6537 36.6677C40.6537 35.874 40.1701 35.42 39.3241 35.42H38.1998V37.9193Z" fill="#20BBB1"/>
<path d="M44.9097 40.8877H43.9336V34.5952H46.3704C47.6649 34.5952 48.4729 35.3458 48.4729 36.5193C48.4729 37.3702 48.0193 38.0586 47.2525 38.3162L48.6581 40.8877H47.5338L46.2523 38.4665H44.9097V40.8877ZM44.9097 37.6808H46.2833C47.0372 37.6808 47.4677 37.2659 47.4677 36.5464C47.4677 35.8449 47.0102 35.416 46.2563 35.416H44.9097V37.6808Z" fill="#20BBB1"/>
<path d="M54.8325 40.8877H50.8398V34.5952H54.8325V35.437H51.816V37.28H54.6713V38.0917H51.816V40.0459H54.8325V40.8877Z" fill="#20BBB1"/>
<path d="M62.7316 40.8877V36.2568H62.7026L60.8064 40.8416H60.0835L58.1813 36.2568H58.1513V40.8877H57.2612V34.5952H58.3905L60.4259 39.5639H60.461L62.4913 34.5952H63.6246V40.8877H62.7316Z" fill="#20BBB1"/>
<path d="M66.2124 40.8877V34.5952H67.1885V40.8877H66.2124Z" fill="#20BBB1"/>
<path d="M70.752 38.5958C70.752 39.4977 71.3187 40.1271 72.3218 40.1271C73.325 40.1271 73.8946 39.4937 73.8946 38.5958V34.5952H74.8668V38.683C74.8668 40.0399 73.8997 41 72.3218 41C70.744 41 69.7769 40.0399 69.7769 38.683V34.5952H70.752V38.5958Z" fill="#20BBB1"/>
<path d="M82.9259 40.8877V36.2568H82.8949L80.9997 40.8416H80.2768L78.3746 36.2568H78.3446V40.8877H77.4556V34.5952H78.5839L80.6193 39.5639H80.6543L82.6857 34.5952H83.818V40.8877H82.9259Z" fill="#20BBB1"/>
<path d="M90.6168 40.8877H89.6406V34.5952H92.0765C93.371 34.5952 94.1789 35.3458 94.1789 36.5193C94.1789 37.3702 93.7264 38.0586 92.9585 38.3162L94.3641 40.8877H93.2378L91.9563 38.4665H90.6148L90.6168 40.8877ZM90.6168 37.6808H91.9854C92.7392 37.6808 93.1697 37.2659 93.1697 36.5464C93.1697 35.8449 92.7132 35.416 91.9583 35.416H90.6168V37.6808Z" fill="#20BBB1"/>
<path d="M100.539 40.8877H96.5469V34.5952H100.539V35.437H97.523V37.28H100.377V38.0917H97.523V40.0459H100.539V40.8877Z" fill="#20BBB1"/>
<path d="M102.969 40.8877V34.5952H106.896V35.437H103.95V37.4303H106.654V38.2551H103.95V40.8877H102.969Z" fill="#20BBB1"/>
<path d="M110.15 38.5958C110.15 39.4977 110.717 40.1271 111.719 40.1271C112.721 40.1271 113.293 39.4937 113.293 38.5958V34.5952H114.264V38.683C114.264 40.0399 113.297 41 111.719 41C110.141 41 109.174 40.0399 109.174 38.683V34.5952H110.15V38.5958Z" fill="#20BBB1"/>
<path d="M117.827 40.8877H116.851V34.5952H119.287C120.582 34.5952 121.39 35.3458 121.39 36.5193C121.39 37.3702 120.936 38.0586 120.169 38.3162L121.571 40.8877H120.447L119.168 38.4685H117.827V40.8877ZM117.827 37.6808H119.195C119.95 37.6808 120.381 37.2659 120.381 36.5464C120.381 35.8449 119.923 35.416 119.169 35.416H117.827V37.6808Z" fill="#20BBB1"/>
<path d="M123.758 40.8877V34.5952H126.268C127.383 34.5952 128.116 35.2145 128.116 36.1656C128.116 36.833 127.623 37.4303 126.996 37.5355V37.5706C127.85 37.6708 128.425 38.2721 128.425 39.1099C128.425 40.2183 127.624 40.8897 126.281 40.8897L123.758 40.8877ZM124.734 37.272H125.828C126.673 37.272 127.14 36.9222 127.14 36.2989C127.14 35.7146 126.739 35.3919 126.032 35.3919H124.731L124.734 37.272ZM126.077 40.092C126.957 40.092 127.423 39.7292 127.423 39.0488C127.423 38.3683 126.944 38.0196 126.021 38.0196H124.732V40.092H126.077Z" fill="#20BBB1"/>
<path d="M130.694 40.8877V34.5952H131.67V40.8877H130.694Z" fill="#20BBB1"/>
<path d="M134.942 39.1358C135.012 39.7602 135.617 40.17 136.443 40.17C137.236 40.17 137.807 39.7602 137.807 39.1969C137.807 38.7089 137.463 38.4163 136.648 38.2158L135.833 38.0154C134.678 37.7358 134.142 37.1957 134.142 36.3188C134.142 35.2324 135.088 34.4858 136.43 34.4858C137.773 34.4858 138.67 35.2324 138.701 36.3188H137.751C137.694 35.6904 137.175 35.3106 136.417 35.3106C135.66 35.3106 135.14 35.6944 135.14 36.2526C135.14 36.6976 135.471 36.9601 136.282 37.1606L136.975 37.3309C138.265 37.6316 138.801 38.1547 138.801 39.0757C138.801 40.2532 137.864 40.9908 136.373 40.9908C134.979 40.9908 134.038 40.2713 133.977 39.1318L134.942 39.1358Z" fill="#20BBB1"/>
<path d="M145.313 40.8877V38.1027H142.083V40.8877H141.107V34.5952H142.083V37.2559H145.313V34.5952H146.289V40.8877H145.313Z" fill="#20BBB1"/>
<path d="M152.863 40.8877H148.872V34.5952H152.863V35.437H149.848V37.28H152.707V38.0917H149.853V40.0459H152.868L152.863 40.8877Z" fill="#20BBB1"/>
<path d="M157.513 34.5952C159.382 34.5952 160.489 35.7467 160.489 37.7319C160.489 39.7172 159.386 40.8877 157.513 40.8877H155.294V34.5952H157.513ZM156.271 40.0439H157.421C158.754 40.0439 159.491 39.2282 159.491 37.739C159.491 36.2498 158.75 35.434 157.421 35.434H156.271V40.0439Z" fill="#20BBB1"/>
<path d="M167.642 40.8877V35.437H165.715V34.5952H170.54V35.437H168.619V40.8877H167.642Z" fill="#20BBB1"/>
<path d="M176.753 40.8877H172.762V34.5952H176.753V35.437H173.738V37.28H176.592V38.0917H173.738V40.0459H176.753V40.8877Z" fill="#20BBB1"/>
<path d="M178.957 37.7397C178.957 35.7464 180.081 34.4897 181.838 34.4897C183.263 34.4897 184.341 35.3666 184.505 36.6804H183.537C183.363 35.8727 182.692 35.3456 181.835 35.3456C180.693 35.3456 179.952 36.2836 179.952 37.7397C179.952 39.1958 180.685 40.1449 181.839 40.1449C182.715 40.1449 183.341 39.6949 183.534 38.9363H184.506C184.267 40.2391 183.282 40.9997 181.835 40.9997C180.073 40.9947 178.957 39.747 178.957 37.7397Z" fill="#20BBB1"/>
<path d="M191.024 40.8877V38.1027H187.794V40.8877H186.818V34.5952H187.794V37.2559H191.024V34.5952H192V40.8877H191.024Z" fill="#20BBB1"/>
<path d="M28.2904 40.9931H21.3032L13.4541 35.3861C13.8546 35.4111 14.255 35.4512 14.6635 35.4432C16.2952 35.4452 17.9185 35.2088 19.4821 34.7417L28.2904 40.9931Z" fill="#20BBB1"/>
<path d="M0.0595703 27.1294V40.9951H4.08926V31.7473C3.57708 31.3462 3.08868 30.9155 2.62656 30.4575C1.63637 29.459 0.774089 28.341 0.0595703 27.1294Z" fill="#20BBB1"/>
<path d="M14.6607 33.0267C12.1761 33.0277 9.73267 32.3915 7.56348 31.1787L13.4533 35.3877C13.8538 35.4158 14.2543 35.4489 14.6607 35.4489C16.2943 35.4491 17.9193 35.2128 19.4854 34.7474L16.8353 32.8533C16.1158 32.9655 15.3889 33.0234 14.6607 33.0267Z" fill="#20BBB1"/>
<path d="M0.0595713 18.4116V27.1303C0.77409 28.3419 1.63637 29.4599 2.62656 30.4585C3.08868 30.9165 3.57708 31.3471 4.08926 31.7482V28.4732C1.50166 25.764 0.058182 22.1598 0.0595713 18.4116Z" fill="#20BBB1"/>
<path d="M18.6903 4.37354V8.62967C20.4603 9.36052 21.9989 10.5589 23.1415 12.0969C24.2841 13.6348 24.9879 15.4546 25.1778 17.3618C25.3677 19.2689 25.0364 21.1919 24.2195 22.9254C23.4025 24.6588 22.1305 26.1375 20.5393 27.2036C18.9481 28.2698 17.0975 28.8832 15.1852 28.9785C13.2728 29.0738 11.3705 28.6474 9.68137 27.7447C7.99227 26.8421 6.57983 25.4971 5.59492 23.8535C4.61 22.2098 4.0896 20.3293 4.08928 18.4127C4.08744 15.7973 5.05941 13.2751 6.81546 11.3385L8.0549 12.8167L9.34039 9.27806L10.6319 5.72043V5.55006L6.52712 6.27662L3.08011 6.88593L4.20342 8.2248C2.04748 10.4073 0.635557 13.2159 0.169241 16.2496C-0.297076 19.2832 0.206057 22.3867 1.6068 25.1171C3.00755 27.8474 5.23428 30.065 7.96908 31.4531C10.7039 32.8412 13.8069 33.3289 16.8351 32.8466C23.8653 31.7924 29.2636 25.7424 29.2636 18.4117C29.2619 15.2401 28.2294 12.1553 26.322 9.62286C24.4146 7.09043 21.7359 5.24792 18.6903 4.37354Z" fill="#20BBB1"/>
<path d="M16.6757 10.5096V8.02622V3.95148V1.50623V0H12.646V1.50623V2.89822V3.95148V6.78556V8.02622V10.5096V16.3711H16.6757V10.5096Z" fill="white"/>
<path opacity="0.25" d="M14.6607 33.0267C12.1761 33.0277 9.73267 32.3915 7.56348 31.1787L13.4533 35.3877C13.8538 35.4158 14.2543 35.4489 14.6607 35.4489C16.2943 35.4491 17.9193 35.2128 19.4854 34.7474L16.8353 32.8533C16.1158 32.9655 15.3889 33.0234 14.6607 33.0267Z" fill="#010101"/>
<path opacity="0.25" d="M0.0595713 18.4116V27.1303C0.77409 28.3419 1.63637 29.4599 2.62656 30.4585C3.08868 30.9165 3.57708 31.3471 4.08926 31.7482V28.4732C1.50166 25.764 0.058182 22.1598 0.0595713 18.4116Z" fill="#010101"/>
</svg>
